<svg width="30" height="30" viewBox="0 0 30 30" fill="none" xmlns="http://www.w3.org/2000/svg">
<path fill-rule="evenodd" clip-rule="evenodd" d="M5.38125 14.5313L9.075 18.2251C9.21316 18.3538 9.32398 18.5091 9.40084 18.6816C9.4777 18.8541 9.51903 19.0403 9.52236 19.2291C9.52569 19.4179 9.49096 19.6055 9.42023 19.7806C9.3495 19.9557 9.24423 20.1147 9.1107 20.2483C8.97716 20.3818 8.8181 20.4871 8.643 20.5578C8.46789 20.6285 8.28034 20.6633 8.09152 20.6599C7.9027 20.6566 7.71649 20.6153 7.54399 20.5384C7.37149 20.4616 7.21624 20.3507 7.0875 20.2126L0.99375 14.1188L0 13.1251L0.99375 12.1313L7.0875 6.03758C7.35408 5.78918 7.70667 5.65395 8.07098 5.66038C8.43529 5.6668 8.78289 5.81439 9.04054 6.07204C9.29819 6.32969 9.44578 6.67728 9.4522 7.0416C9.45863 7.40591 9.3234 7.7585 9.075 8.02508L5.38125 11.7188H23.9062C25.5224 11.7188 27.0724 12.3608 28.2152 13.5036C29.358 14.6464 30 16.1964 30 17.8126C30 19.4287 29.358 20.9787 28.2152 22.1215C27.0724 23.2643 25.5224 23.9063 23.9062 23.9063H20.1562C19.7833 23.9063 19.4256 23.7582 19.1619 23.4944C18.8982 23.2307 18.75 22.873 18.75 22.5001C18.75 22.1271 18.8982 21.7694 19.1619 21.5057C19.4256 21.242 19.7833 21.0938 20.1562 21.0938H23.9062C24.7765 21.0938 25.6111 20.7481 26.2264 20.1328C26.8418 19.5174 27.1875 18.6828 27.1875 17.8126C27.1875 16.9423 26.8418 16.1077 26.2264 15.4924C25.6111 14.877 24.7765 14.5313 23.9062 14.5313H5.38125Z" fill="white"/>
</svg>
