<svg width="35" height="35" viewBox="0 0 35 35" fill="none" xmlns="http://www.w3.org/2000/svg">
<path d="M21.875 4.375C22.6108 4.37477 23.3195 4.65268 23.8591 5.15302C24.3986 5.65336 24.7291 6.33915 24.7843 7.07292L24.7916 7.29167C24.7917 7.64886 24.9228 7.99362 25.1602 8.26054C25.3975 8.52747 25.7246 8.698 26.0793 8.73979L26.25 8.75H27.7083C28.8242 8.74994 29.898 9.17631 30.7099 9.94187C31.5218 10.7074 32.0105 11.7543 32.076 12.8683L32.0833 13.125V26.25C32.0834 27.3659 31.657 28.4397 30.8914 29.2516C30.1259 30.0636 29.079 30.5522 27.965 30.6177L27.7083 30.625H7.29163C6.17569 30.6251 5.10192 30.1987 4.29 29.4331C3.47807 28.6676 2.98939 27.6207 2.92392 26.5067L2.91663 26.25V13.125C2.91656 12.0091 3.34293 10.9353 4.1085 10.1234C4.87406 9.31145 5.92095 8.82276 7.03496 8.75729L7.29163 8.75H8.74996C9.13673 8.75 9.50767 8.59635 9.78116 8.32286C10.0546 8.04937 10.2083 7.67844 10.2083 7.29167C10.2081 6.55583 10.486 5.84709 10.9863 5.30753C11.4866 4.76798 12.1724 4.43748 12.9062 4.38229L13.125 4.375H21.875ZM17.5 14.5833C16.4158 14.5832 15.3703 14.9857 14.566 15.7126C13.7617 16.4396 13.256 17.4393 13.1468 18.5179L13.1308 18.7396L13.125 18.9583L13.1308 19.1771C13.1736 20.032 13.4662 20.8556 13.9725 21.5458C14.4788 22.2361 15.1764 22.7626 15.9789 23.0603C16.7815 23.358 17.6538 23.4136 18.4877 23.2205C19.3216 23.0273 20.0805 22.5937 20.6704 21.9735C21.2604 21.3532 21.6554 20.5735 21.8065 19.731C21.9577 18.8885 21.8584 18.0201 21.5209 17.2334C21.1834 16.4468 20.6226 15.7764 19.9079 15.3054C19.1932 14.8343 18.356 14.5833 17.5 14.5833Z" fill="white"/>
</svg>
